<svg xmlns="http://www.w3.org/2000/svg" xmlns:xlink="http://www.w3.org/1999/xlink" width="500" zoomAndPan="magnify" viewBox="0 0 375 374.999991" height="500" preserveAspectRatio="xMidYMid meet" version="1.0"><defs><g/><clipPath id="9f94cfe5b9"><path d="M 140 89.242188 L 235 89.242188 L 235 239 L 140 239 Z M 140 89.242188 " clip-rule="nonzero"/></clipPath></defs><g clip-path="url(#9f94cfe5b9)"><path fill="#3949ab" d="M 226.175781 179.144531 C 224.945312 178.328125 223.832031 177.378906 222.835938 176.289062 C 221.84375 175.195312 220.996094 174 220.300781 172.699219 C 219.601562 171.402344 219.074219 170.035156 218.71875 168.601562 C 218.359375 167.171875 218.183594 165.71875 218.1875 164.242188 L 218.1875 155.949219 C 219.035156 156.027344 219.882812 156.035156 220.730469 155.96875 C 221.578125 155.90625 222.414062 155.769531 223.242188 155.566406 C 224.066406 155.359375 224.871094 155.085938 225.652344 154.746094 C 226.429688 154.40625 227.175781 154.003906 227.890625 153.539062 C 228.601562 153.074219 229.269531 152.550781 229.894531 151.972656 C 230.519531 151.394531 231.089844 150.769531 231.609375 150.09375 C 232.128906 149.421875 232.585938 148.707031 232.988281 147.957031 C 233.386719 147.203125 233.71875 146.425781 233.988281 145.617188 C 234.253906 144.808594 234.453125 143.984375 234.585938 143.144531 C 234.714844 142.304688 234.773438 141.457031 234.757812 140.605469 C 234.746094 139.757812 234.664062 138.914062 234.507812 138.074219 C 234.351562 137.238281 234.128906 136.421875 233.835938 135.621094 C 233.546875 134.824219 233.1875 134.054688 232.765625 133.3125 C 232.34375 132.574219 231.863281 131.875 231.324219 131.21875 C 230.785156 130.558594 230.195312 129.953125 229.554688 129.390625 C 228.914062 128.832031 228.230469 128.332031 227.503906 127.886719 C 228.644531 126.257812 229.558594 124.507812 230.246094 122.640625 C 230.933594 120.773438 231.375 118.847656 231.566406 116.867188 C 231.757812 114.886719 231.695312 112.914062 231.375 110.949219 C 231.058594 108.984375 230.496094 107.09375 229.6875 105.273438 L 223.496094 91.449219 C 223.324219 90.945312 223.027344 90.527344 222.613281 90.191406 C 222.199219 89.859375 221.730469 89.660156 221.199219 89.597656 C 220.695312 89.554688 220.21875 89.640625 219.761719 89.859375 C 219.304688 90.074219 218.9375 90.394531 218.65625 90.816406 L 215.421875 95.761719 C 211.804688 101.230469 209.371094 107.183594 208.125 113.621094 C 205.636719 112.367188 203.003906 111.730469 200.21875 111.714844 C 197.898438 111.722656 195.660156 112.160156 193.511719 113.03125 C 191.359375 113.898438 189.449219 115.136719 187.777344 116.746094 C 186.105469 115.136719 184.191406 113.898438 182.042969 113.03125 C 179.890625 112.160156 177.65625 111.722656 175.335938 111.714844 C 172.574219 111.730469 169.957031 112.359375 167.484375 113.59375 C 166.21875 107.152344 163.769531 101.199219 160.128906 95.734375 L 156.894531 90.816406 C 156.617188 90.394531 156.246094 90.074219 155.792969 89.859375 C 155.335938 89.640625 154.855469 89.554688 154.351562 89.597656 C 153.851562 89.640625 153.394531 89.808594 152.984375 90.101562 C 152.570312 90.390625 152.261719 90.769531 152.058594 91.230469 L 145.867188 105.050781 C 145.058594 106.871094 144.496094 108.761719 144.175781 110.726562 C 143.859375 112.691406 143.796875 114.664062 143.988281 116.644531 C 144.179688 118.628906 144.617188 120.550781 145.308594 122.417969 C 145.996094 124.285156 146.910156 126.035156 148.050781 127.667969 C 147.289062 128.09375 146.574219 128.585938 145.898438 129.136719 C 145.222656 129.6875 144.601562 130.296875 144.03125 130.953125 C 143.460938 131.613281 142.949219 132.316406 142.5 133.0625 C 142.050781 133.8125 141.667969 134.589844 141.355469 135.40625 C 141.039062 136.21875 140.796875 137.050781 140.625 137.90625 C 140.457031 138.761719 140.359375 139.625 140.335938 140.496094 C 140.3125 141.367188 140.367188 142.234375 140.492188 143.097656 C 140.621094 143.960938 140.820312 144.804688 141.09375 145.632812 C 141.367188 146.460938 141.707031 147.261719 142.117188 148.03125 C 142.527344 148.796875 143 149.527344 143.539062 150.214844 C 144.074219 150.902344 144.664062 151.539062 145.308594 152.125 C 145.957031 152.710938 146.648438 153.238281 147.382812 153.703125 C 148.121094 154.171875 148.890625 154.570312 149.695312 154.90625 C 150.5 155.238281 151.328125 155.5 152.179688 155.691406 C 153.03125 155.882812 153.890625 156 154.761719 156.042969 C 155.632812 156.085938 156.5 156.054688 157.367188 155.949219 L 157.367188 164.242188 C 157.367188 165.714844 157.1875 167.167969 156.828125 168.601562 C 156.46875 170.03125 155.941406 171.394531 155.242188 172.695312 C 154.546875 173.996094 153.703125 175.191406 152.707031 176.28125 C 151.714844 177.371094 150.605469 178.328125 149.375 179.144531 C 146.703125 180.945312 144.601562 183.269531 143.074219 186.109375 C 141.539062 188.957031 140.773438 191.996094 140.777344 195.230469 L 140.777344 197.417969 C 140.777344 198.050781 140.808594 198.683594 140.871094 199.3125 C 140.933594 199.945312 141.027344 200.570312 141.152344 201.191406 C 141.273438 201.8125 141.429688 202.425781 141.613281 203.035156 C 141.796875 203.640625 142.007812 204.238281 142.253906 204.820312 C 142.496094 205.40625 142.765625 205.980469 143.0625 206.539062 C 143.363281 207.097656 143.6875 207.640625 144.039062 208.167969 C 144.390625 208.695312 144.769531 209.203125 145.171875 209.691406 C 145.574219 210.183594 146 210.652344 146.445312 211.101562 C 146.894531 211.546875 147.363281 211.972656 147.855469 212.375 C 148.34375 212.777344 148.851562 213.15625 149.378906 213.507812 C 149.90625 213.859375 150.449219 214.183594 151.007812 214.484375 C 151.566406 214.78125 152.140625 215.050781 152.726562 215.296875 C 153.3125 215.539062 153.90625 215.75 154.511719 215.933594 C 155.121094 216.117188 155.734375 216.273438 156.355469 216.394531 C 156.976562 216.519531 157.601562 216.613281 158.234375 216.675781 C 158.863281 216.738281 159.496094 216.769531 160.128906 216.769531 C 160.855469 216.769531 161.574219 216.839844 162.289062 216.980469 C 163 217.121094 163.691406 217.332031 164.363281 217.609375 C 165.035156 217.886719 165.671875 218.230469 166.273438 218.632812 C 166.878906 219.035156 167.4375 219.492188 167.949219 220.007812 C 168.464844 220.519531 168.921875 221.078125 169.324219 221.683594 C 169.730469 222.285156 170.070312 222.925781 170.347656 223.59375 C 170.625 224.265625 170.835938 224.957031 170.976562 225.667969 C 171.117188 226.382812 171.1875 227.101562 171.1875 227.828125 C 171.1875 228.550781 171.261719 229.273438 171.402344 229.984375 C 171.542969 230.695312 171.753906 231.386719 172.03125 232.058594 C 172.308594 232.730469 172.648438 233.367188 173.050781 233.96875 C 173.457031 234.574219 173.914062 235.132812 174.429688 235.644531 C 174.941406 236.160156 175.5 236.617188 176.105469 237.019531 C 176.707031 237.425781 177.34375 237.765625 178.015625 238.042969 C 178.6875 238.320312 179.378906 238.53125 180.089844 238.671875 C 180.800781 238.8125 181.519531 238.886719 182.246094 238.886719 L 193.304688 238.886719 C 194.03125 238.886719 194.75 238.8125 195.464844 238.671875 C 196.175781 238.53125 196.867188 238.320312 197.539062 238.042969 C 198.207031 237.765625 198.84375 237.425781 199.449219 237.019531 C 200.054688 236.617188 200.613281 236.160156 201.125 235.644531 C 201.636719 235.132812 202.097656 234.574219 202.5 233.96875 C 202.902344 233.367188 203.246094 232.730469 203.523438 232.058594 C 203.800781 231.386719 204.007812 230.695312 204.152344 229.984375 C 204.292969 229.273438 204.363281 228.550781 204.363281 227.828125 C 204.363281 227.101562 204.433594 226.382812 204.578125 225.667969 C 204.71875 224.957031 204.925781 224.265625 205.207031 223.59375 C 205.484375 222.925781 205.824219 222.285156 206.226562 221.683594 C 206.628906 221.078125 207.089844 220.519531 207.601562 220.007812 C 208.117188 219.492188 208.675781 219.035156 209.277344 218.632812 C 209.882812 218.230469 210.519531 217.886719 211.191406 217.609375 C 211.859375 217.332031 212.550781 217.121094 213.265625 216.980469 C 213.976562 216.839844 214.695312 216.769531 215.421875 216.769531 C 216.054688 216.769531 216.6875 216.738281 217.320312 216.675781 C 217.949219 216.613281 218.574219 216.519531 219.199219 216.394531 C 219.820312 216.273438 220.433594 216.117188 221.039062 215.933594 C 221.644531 215.75 222.242188 215.539062 222.828125 215.296875 C 223.414062 215.050781 223.984375 214.78125 224.542969 214.484375 C 225.101562 214.183594 225.644531 213.859375 226.171875 213.507812 C 226.699219 213.15625 227.207031 212.777344 227.699219 212.375 C 228.1875 211.972656 228.65625 211.546875 229.105469 211.101562 C 229.554688 210.652344 229.980469 210.183594 230.382812 209.691406 C 230.785156 209.203125 231.160156 208.695312 231.511719 208.167969 C 231.863281 207.640625 232.191406 207.097656 232.488281 206.539062 C 232.789062 205.980469 233.058594 205.40625 233.300781 204.820312 C 233.542969 204.238281 233.757812 203.640625 233.941406 203.035156 C 234.125 202.425781 234.277344 201.8125 234.402344 201.191406 C 234.527344 200.570312 234.617188 199.945312 234.679688 199.3125 C 234.742188 198.683594 234.773438 198.050781 234.773438 197.417969 L 234.773438 195.230469 C 234.773438 193.640625 234.582031 192.074219 234.195312 190.53125 C 233.808594 188.988281 233.238281 187.515625 232.488281 186.109375 C 231.738281 184.707031 230.832031 183.417969 229.761719 182.238281 C 228.695312 181.058594 227.5 180.027344 226.175781 179.144531 Z M 219.957031 98.832031 L 220.453125 98.085938 L 224.601562 107.457031 C 225.234375 108.886719 225.671875 110.375 225.910156 111.921875 C 226.148438 113.46875 226.179688 115.019531 226.007812 116.574219 C 225.832031 118.128906 225.457031 119.632812 224.878906 121.089844 C 224.304688 122.542969 223.546875 123.898438 222.609375 125.152344 L 222.140625 125.757812 L 222 125.757812 C 221.214844 125.628906 220.421875 125.566406 219.625 125.566406 C 219.023438 125.527344 218.425781 125.527344 217.828125 125.566406 C 217.625 124.699219 217.355469 123.851562 217.027344 123.023438 C 217.027344 122.746094 216.777344 122.46875 216.636719 122.191406 C 216.5 121.917969 216.167969 121.140625 215.863281 120.644531 C 215.558594 120.148438 215.476562 120.007812 215.257812 119.703125 C 215.035156 119.402344 214.675781 118.847656 214.371094 118.460938 L 213.625 117.574219 L 213.15625 117.023438 C 214.046875 110.445312 216.3125 104.382812 219.957031 98.832031 Z M 150.84375 107.457031 L 154.988281 98.085938 L 155.488281 98.832031 C 159.242188 104.429688 161.582031 110.566406 162.507812 117.246094 L 162.011719 117.824219 L 161.320312 118.625 C 160.960938 119.070312 160.65625 119.511719 160.351562 119.980469 C 160.046875 120.449219 159.964844 120.535156 159.800781 120.839844 C 159.503906 121.359375 159.238281 121.894531 158.996094 122.441406 C 158.996094 122.691406 158.75 122.9375 158.636719 123.214844 C 158.308594 124.042969 158.039062 124.890625 157.835938 125.757812 C 157.15625 125.710938 156.472656 125.710938 155.789062 125.757812 L 155.320312 125.757812 C 154.746094 125.78125 154.175781 125.835938 153.605469 125.925781 L 153.386719 125.925781 L 152.914062 125.316406 C 151.964844 124.054688 151.195312 122.6875 150.609375 121.21875 C 150.027344 119.75 149.644531 118.230469 149.472656 116.660156 C 149.296875 115.089844 149.332031 113.523438 149.578125 111.960938 C 149.824219 110.398438 150.273438 108.898438 150.925781 107.457031 Z M 155.984375 150.417969 C 155.410156 150.421875 154.839844 150.371094 154.273438 150.273438 C 153.707031 150.175781 153.15625 150.027344 152.617188 149.828125 C 152.078125 149.628906 151.558594 149.386719 151.0625 149.097656 C 150.566406 148.808594 150.101562 148.476562 149.664062 148.101562 C 149.226562 147.730469 148.828125 147.320312 148.460938 146.875 C 148.097656 146.433594 147.777344 145.960938 147.496094 145.457031 C 147.214844 144.957031 146.984375 144.433594 146.796875 143.890625 C 146.609375 143.347656 146.472656 142.792969 146.382812 142.226562 C 146.296875 141.65625 146.257812 141.085938 146.273438 140.511719 C 146.285156 139.9375 146.351562 139.371094 146.464844 138.804688 C 146.582031 138.242188 146.742188 137.695312 146.957031 137.160156 C 147.167969 136.628906 147.425781 136.117188 147.730469 135.628906 C 148.035156 135.140625 148.378906 134.683594 148.761719 134.257812 C 149.148438 133.832031 149.566406 133.445312 150.023438 133.089844 C 150.476562 132.738281 150.957031 132.429688 151.46875 132.164062 C 151.976562 131.898438 152.503906 131.679688 153.054688 131.507812 C 155.128906 130.859375 157.183594 130.914062 159.21875 131.675781 C 159.523438 131.785156 159.835938 131.839844 160.160156 131.839844 L 160.628906 131.839844 C 161.015625 131.78125 161.375 131.640625 161.707031 131.425781 C 162.070312 131.179688 162.363281 130.863281 162.574219 130.480469 C 162.789062 130.09375 162.90625 129.683594 162.921875 129.242188 C 162.992188 127.523438 163.398438 125.890625 164.148438 124.339844 C 164.898438 122.792969 165.929688 121.460938 167.234375 120.339844 C 168.351562 119.34375 169.605469 118.582031 171 118.046875 C 172.398438 117.515625 173.839844 117.246094 175.335938 117.246094 C 176.332031 117.25 177.316406 117.371094 178.285156 117.613281 C 179.253906 117.851562 180.179688 118.203125 181.066406 118.664062 C 181.953125 119.125 182.769531 119.683594 183.519531 120.34375 C 184.269531 121 184.933594 121.738281 185.507812 122.550781 C 185.636719 122.730469 185.785156 122.894531 185.949219 123.039062 C 186.117188 123.183594 186.300781 123.304688 186.496094 123.40625 C 186.691406 123.507812 186.894531 123.585938 187.109375 123.636719 C 187.324219 123.6875 187.542969 123.714844 187.761719 123.714844 C 187.984375 123.714844 188.199219 123.6875 188.414062 123.636719 C 188.628906 123.585938 188.835938 123.507812 189.03125 123.40625 C 189.226562 123.304688 189.40625 123.183594 189.574219 123.039062 C 189.742188 122.894531 189.886719 122.730469 190.015625 122.550781 C 190.59375 121.734375 191.257812 120.996094 192.011719 120.339844 C 192.761719 119.679688 193.582031 119.121094 194.472656 118.65625 C 195.359375 118.195312 196.289062 117.847656 197.257812 117.605469 C 198.230469 117.367188 199.214844 117.246094 200.21875 117.246094 C 201.011719 117.25 201.800781 117.328125 202.578125 117.480469 C 203.359375 117.636719 204.117188 117.863281 204.855469 118.160156 C 205.589844 118.460938 206.292969 118.828125 206.960938 119.257812 C 207.625 119.691406 208.246094 120.183594 208.820312 120.734375 C 209.394531 121.285156 209.910156 121.882812 210.371094 122.53125 C 210.828125 123.179688 211.222656 123.867188 211.550781 124.589844 C 211.878906 125.316406 212.136719 126.0625 212.324219 126.835938 C 212.507812 127.609375 212.621094 128.394531 212.65625 129.1875 C 212.671875 129.503906 212.738281 129.804688 212.855469 130.097656 C 212.976562 130.390625 213.136719 130.65625 213.347656 130.890625 C 213.554688 131.128906 213.796875 131.320312 214.074219 131.476562 C 214.347656 131.628906 214.640625 131.734375 214.953125 131.785156 L 215.421875 131.785156 C 215.746094 131.785156 216.058594 131.730469 216.363281 131.621094 C 217.847656 131.054688 219.375 130.871094 220.949219 131.066406 C 221.449219 131.140625 221.9375 131.25 222.417969 131.398438 C 222.988281 131.550781 223.539062 131.753906 224.070312 132.003906 C 224.605469 132.257812 225.109375 132.554688 225.589844 132.902344 C 226.066406 133.246094 226.511719 133.632812 226.917969 134.058594 C 227.328125 134.484375 227.691406 134.945312 228.015625 135.4375 C 228.339844 135.929688 228.617188 136.449219 228.847656 136.992188 C 229.074219 137.535156 229.253906 138.097656 229.378906 138.671875 C 229.507812 139.25 229.578125 139.832031 229.601562 140.421875 C 229.621094 141.011719 229.585938 141.597656 229.5 142.183594 C 229.410156 142.765625 229.273438 143.335938 229.082031 143.894531 C 228.886719 144.453125 228.648438 144.988281 228.359375 145.503906 C 228.066406 146.015625 227.734375 146.5 227.355469 146.953125 C 226.976562 147.40625 226.5625 147.820312 226.105469 148.195312 C 225.652344 148.574219 225.167969 148.90625 224.652344 149.195312 C 224.136719 149.480469 223.601562 149.722656 223.042969 149.910156 C 222.484375 150.101562 221.914062 150.238281 221.328125 150.324219 C 220.746094 150.410156 220.160156 150.441406 219.570312 150.417969 C 218.457031 150.40625 217.378906 150.203125 216.335938 149.8125 C 215.902344 149.664062 215.460938 149.628906 215.011719 149.703125 C 214.5625 149.777344 214.15625 149.949219 213.789062 150.226562 C 213.417969 150.5 213.125 150.84375 212.914062 151.257812 C 212.707031 151.671875 212.601562 152.109375 212.601562 152.574219 C 212.59375 152.695312 212.59375 152.816406 212.601562 152.933594 C 212.539062 153.703125 212.402344 154.457031 212.199219 155.199219 C 211.992188 155.945312 211.71875 156.660156 211.378906 157.351562 C 211.039062 158.042969 210.636719 158.699219 210.175781 159.3125 C 209.714844 159.929688 209.195312 160.5 208.628906 161.019531 C 208.058594 161.539062 207.445312 162 206.789062 162.40625 C 206.132812 162.808594 205.445312 163.148438 204.726562 163.425781 C 204.007812 163.703125 203.269531 163.90625 202.511719 164.046875 C 201.753906 164.183594 200.988281 164.246094 200.21875 164.242188 C 199.21875 164.238281 198.234375 164.113281 197.265625 163.875 C 196.296875 163.632812 195.371094 163.28125 194.488281 162.820312 C 193.601562 162.359375 192.785156 161.800781 192.03125 161.144531 C 191.28125 160.484375 190.617188 159.75 190.042969 158.933594 C 189.914062 158.753906 189.769531 158.59375 189.601562 158.449219 C 189.433594 158.304688 189.253906 158.179688 189.058594 158.078125 C 188.863281 157.976562 188.65625 157.902344 188.441406 157.847656 C 188.226562 157.796875 188.011719 157.769531 187.789062 157.769531 C 187.570312 157.769531 187.351562 157.796875 187.136719 157.847656 C 186.921875 157.902344 186.71875 157.976562 186.523438 158.078125 C 186.328125 158.179688 186.144531 158.304688 185.980469 158.449219 C 185.8125 158.59375 185.664062 158.753906 185.539062 158.933594 C 184.960938 159.75 184.296875 160.488281 183.542969 161.148438 C 182.789062 161.804688 181.96875 162.367188 181.082031 162.828125 C 180.195312 163.289062 179.265625 163.640625 178.292969 163.878906 C 177.320312 164.117188 176.335938 164.238281 175.335938 164.242188 C 174.5625 164.25 173.796875 164.1875 173.035156 164.054688 C 172.273438 163.917969 171.53125 163.714844 170.808594 163.441406 C 170.085938 163.167969 169.394531 162.828125 168.738281 162.421875 C 168.078125 162.019531 167.460938 161.558594 166.890625 161.035156 C 166.316406 160.515625 165.800781 159.949219 165.335938 159.332031 C 164.871094 158.714844 164.464844 158.058594 164.125 157.363281 C 163.78125 156.671875 163.507812 155.953125 163.300781 155.207031 C 163.09375 154.460938 162.960938 153.703125 162.894531 152.933594 C 162.894531 152.933594 162.894531 152.519531 162.894531 152.410156 C 162.894531 152.1875 162.867188 151.96875 162.816406 151.753906 C 162.761719 151.539062 162.6875 151.332031 162.582031 151.132812 C 162.480469 150.9375 162.355469 150.753906 162.210938 150.589844 C 162.0625 150.421875 161.898438 150.273438 161.71875 150.148438 C 161.535156 150.019531 161.34375 149.914062 161.136719 149.835938 C 160.929688 149.753906 160.714844 149.699219 160.496094 149.671875 C 160.277344 149.640625 160.054688 149.636719 159.835938 149.660156 C 159.613281 149.6875 159.398438 149.734375 159.191406 149.8125 C 158.15625 150.199219 157.089844 150.402344 155.984375 150.417969 Z M 229.246094 197.417969 C 229.246094 198.324219 229.15625 199.222656 228.980469 200.113281 C 228.800781 201.003906 228.539062 201.867188 228.191406 202.707031 C 227.84375 203.542969 227.417969 204.339844 226.914062 205.097656 C 226.410156 205.851562 225.839844 206.546875 225.195312 207.191406 C 224.554688 207.832031 223.855469 208.40625 223.101562 208.910156 C 222.347656 209.414062 221.550781 209.839844 220.710938 210.1875 C 219.875 210.535156 219.007812 210.796875 218.117188 210.972656 C 217.230469 211.152344 216.328125 211.238281 215.421875 211.238281 C 214.878906 211.238281 214.335938 211.265625 213.796875 211.320312 C 213.253906 211.371094 212.71875 211.453125 212.1875 211.558594 C 211.652344 211.664062 211.125 211.796875 210.605469 211.953125 C 210.085938 212.109375 209.578125 212.292969 209.074219 212.5 C 208.574219 212.710938 208.082031 212.941406 207.601562 213.199219 C 207.125 213.453125 206.660156 213.734375 206.207031 214.035156 C 205.753906 214.335938 205.320312 214.660156 204.898438 215.003906 C 204.480469 215.347656 204.078125 215.714844 203.691406 216.097656 C 203.308594 216.480469 202.945312 216.882812 202.601562 217.304688 C 202.253906 217.722656 201.933594 218.160156 201.628906 218.609375 C 201.328125 219.0625 201.050781 219.527344 200.792969 220.007812 C 200.539062 220.488281 200.304688 220.976562 200.097656 221.480469 C 199.890625 221.980469 199.707031 222.492188 199.550781 223.011719 C 199.390625 223.53125 199.257812 224.058594 199.152344 224.589844 C 199.046875 225.125 198.96875 225.660156 198.914062 226.199219 C 198.859375 226.742188 198.835938 227.285156 198.835938 227.828125 C 198.835938 228.191406 198.800781 228.550781 198.726562 228.90625 C 198.65625 229.261719 198.550781 229.605469 198.414062 229.941406 C 198.273438 230.277344 198.105469 230.597656 197.902344 230.898438 C 197.699219 231.199219 197.472656 231.480469 197.214844 231.734375 C 196.957031 231.992188 196.679688 232.222656 196.378906 232.421875 C 196.074219 232.625 195.757812 232.796875 195.421875 232.933594 C 195.085938 233.074219 194.742188 233.179688 194.382812 233.25 C 194.027344 233.320312 193.667969 233.355469 193.304688 233.355469 L 182.246094 233.355469 C 181.882812 233.355469 181.523438 233.320312 181.167969 233.25 C 180.8125 233.179688 180.46875 233.074219 180.132812 232.933594 C 179.796875 232.796875 179.476562 232.625 179.175781 232.421875 C 178.875 232.222656 178.59375 231.992188 178.335938 231.734375 C 178.082031 231.480469 177.851562 231.199219 177.648438 230.898438 C 177.449219 230.597656 177.277344 230.277344 177.140625 229.941406 C 177 229.605469 176.894531 229.261719 176.824219 228.90625 C 176.753906 228.550781 176.71875 228.191406 176.71875 227.828125 C 176.71875 227.285156 176.691406 226.742188 176.636719 226.199219 C 176.585938 225.660156 176.503906 225.125 176.398438 224.589844 C 176.292969 224.058594 176.160156 223.53125 176.003906 223.011719 C 175.847656 222.492188 175.664062 221.980469 175.457031 221.480469 C 175.246094 220.976562 175.015625 220.488281 174.757812 220.007812 C 174.503906 219.527344 174.222656 219.0625 173.921875 218.609375 C 173.621094 218.160156 173.296875 217.722656 172.953125 217.304688 C 172.609375 216.882812 172.242188 216.480469 171.859375 216.097656 C 171.476562 215.714844 171.074219 215.347656 170.652344 215.003906 C 170.234375 214.660156 169.796875 214.335938 169.347656 214.035156 C 168.894531 213.734375 168.429688 213.453125 167.949219 213.199219 C 167.472656 212.941406 166.980469 212.710938 166.480469 212.5 C 165.976562 212.292969 165.464844 212.109375 164.945312 211.953125 C 164.425781 211.796875 163.898438 211.664062 163.367188 211.558594 C 162.835938 211.453125 162.296875 211.371094 161.757812 211.320312 C 161.214844 211.265625 160.675781 211.238281 160.128906 211.238281 C 159.222656 211.238281 158.324219 211.152344 157.433594 210.972656 C 156.542969 210.796875 155.679688 210.535156 154.839844 210.1875 C 154.003906 209.839844 153.207031 209.414062 152.453125 208.910156 C 151.695312 208.40625 151 207.832031 150.355469 207.191406 C 149.714844 206.546875 149.140625 205.851562 148.636719 205.097656 C 148.132812 204.339844 147.707031 203.542969 147.359375 202.707031 C 147.011719 201.867188 146.75 201.003906 146.574219 200.113281 C 146.398438 199.222656 146.308594 198.324219 146.308594 197.417969 L 146.308594 195.230469 C 146.304688 192.921875 146.851562 190.746094 147.9375 188.707031 C 149.03125 186.679688 150.535156 185.019531 152.445312 183.730469 C 154.015625 182.691406 155.4375 181.476562 156.710938 180.09375 C 157.988281 178.707031 159.082031 177.191406 159.992188 175.542969 C 160.902344 173.894531 161.601562 172.164062 162.09375 170.34375 C 162.582031 168.527344 162.851562 166.675781 162.894531 164.792969 C 163.253906 165.152344 163.640625 165.457031 164.027344 165.789062 C 164.730469 166.34375 165.464844 166.839844 166.242188 167.28125 L 166.601562 167.503906 C 167.355469 167.921875 168.140625 168.28125 168.949219 168.582031 L 169.417969 168.746094 C 170.261719 169.03125 171.117188 169.253906 171.992188 169.410156 L 172.378906 169.410156 C 173.292969 169.566406 174.214844 169.648438 175.140625 169.660156 C 177.488281 169.695312 179.753906 169.285156 181.941406 168.433594 C 184.125 167.582031 186.070312 166.351562 187.777344 164.738281 C 189.449219 166.347656 191.359375 167.585938 193.511719 168.457031 C 195.660156 169.324219 197.898438 169.765625 200.21875 169.769531 C 201.144531 169.757812 202.066406 169.675781 202.980469 169.523438 L 203.367188 169.523438 C 204.242188 169.363281 205.097656 169.144531 205.941406 168.859375 L 206.410156 168.691406 C 207.21875 168.390625 208.003906 168.03125 208.757812 167.613281 L 209.144531 167.394531 C 209.921875 166.953125 210.660156 166.453125 211.359375 165.898438 C 211.746094 165.597656 212.105469 165.265625 212.464844 164.933594 C 212.5 166.816406 212.761719 168.667969 213.25 170.488281 C 213.734375 172.3125 214.433594 174.046875 215.339844 175.699219 C 216.25 177.351562 217.339844 178.867188 218.617188 180.253906 C 219.890625 181.640625 221.316406 182.855469 222.886719 183.898438 C 223.839844 184.507812 224.707031 185.226562 225.484375 186.050781 C 226.261719 186.875 226.925781 187.78125 227.480469 188.769531 C 228.035156 189.757812 228.460938 190.800781 228.761719 191.894531 C 229.058594 192.988281 229.21875 194.097656 229.246094 195.230469 Z M 229.246094 197.417969 " fill-opacity="1" fill-rule="nonzero"/></g><path fill="#3949ab" d="M 194.105469 209.277344 C 193.683594 209.679688 193.226562 210.042969 192.734375 210.359375 C 192.242188 210.675781 191.722656 210.945312 191.179688 211.164062 C 190.636719 211.378906 190.078125 211.542969 189.503906 211.65625 C 188.929688 211.765625 188.347656 211.824219 187.761719 211.824219 C 187.175781 211.824219 186.597656 211.765625 186.023438 211.65625 C 185.445312 211.542969 184.886719 211.378906 184.34375 211.164062 C 183.800781 210.945312 183.28125 210.675781 182.789062 210.359375 C 182.296875 210.042969 181.839844 209.679688 181.417969 209.277344 C 181.152344 209.050781 180.855469 208.878906 180.527344 208.765625 C 180.199219 208.652344 179.859375 208.601562 179.511719 208.613281 C 179.164062 208.628906 178.832031 208.703125 178.511719 208.84375 C 178.195312 208.980469 177.910156 209.175781 177.664062 209.421875 C 177.417969 209.667969 177.226562 209.949219 177.085938 210.269531 C 176.945312 210.589844 176.871094 210.921875 176.855469 211.269531 C 176.84375 211.617188 176.894531 211.957031 177.007812 212.285156 C 177.125 212.613281 177.292969 212.910156 177.519531 213.175781 C 178.539062 214.203125 179.6875 215.0625 180.964844 215.746094 C 182.238281 216.429688 183.589844 216.90625 185.011719 217.183594 L 185.011719 225.0625 C 185.011719 225.429688 185.082031 225.78125 185.222656 226.121094 C 185.363281 226.457031 185.5625 226.757812 185.820312 227.015625 C 186.082031 227.277344 186.378906 227.476562 186.71875 227.617188 C 187.058594 227.757812 187.410156 227.828125 187.777344 227.828125 C 188.144531 227.828125 188.496094 227.757812 188.835938 227.617188 C 189.171875 227.476562 189.472656 227.277344 189.730469 227.015625 C 189.992188 226.757812 190.191406 226.457031 190.332031 226.121094 C 190.472656 225.78125 190.539062 225.429688 190.539062 225.0625 L 190.539062 217.183594 C 193.449219 216.628906 195.945312 215.300781 198.03125 213.203125 C 198.257812 212.9375 198.429688 212.640625 198.542969 212.3125 C 198.660156 211.984375 198.710938 211.644531 198.695312 211.296875 C 198.683594 210.949219 198.605469 210.617188 198.464844 210.296875 C 198.328125 209.976562 198.132812 209.695312 197.886719 209.449219 C 197.640625 209.203125 197.359375 209.011719 197.039062 208.871094 C 196.722656 208.730469 196.386719 208.65625 196.039062 208.640625 C 195.691406 208.628906 195.355469 208.679688 195.023438 208.792969 C 194.695312 208.90625 194.398438 209.078125 194.136719 209.304688 Z M 194.105469 209.277344 " fill-opacity="1" fill-rule="nonzero"/><path fill="#3949ab" d="M 168.425781 172.535156 C 168.058594 172.535156 167.707031 172.605469 167.367188 172.746094 C 167.027344 172.886719 166.730469 173.085938 166.46875 173.34375 C 166.210938 173.605469 166.011719 173.902344 165.871094 174.242188 C 165.730469 174.582031 165.660156 174.933594 165.660156 175.300781 L 165.660156 180.828125 C 165.660156 181.195312 165.730469 181.546875 165.871094 181.886719 C 166.011719 182.226562 166.210938 182.523438 166.46875 182.785156 C 166.730469 183.042969 167.027344 183.242188 167.367188 183.382812 C 167.707031 183.523438 168.058594 183.59375 168.425781 183.59375 C 168.792969 183.59375 169.144531 183.523438 169.484375 183.382812 C 169.820312 183.242188 170.121094 183.042969 170.378906 182.785156 C 170.636719 182.523438 170.839844 182.226562 170.980469 181.886719 C 171.117188 181.546875 171.1875 181.195312 171.1875 180.828125 L 171.1875 175.300781 C 171.1875 174.933594 171.117188 174.582031 170.980469 174.242188 C 170.839844 173.902344 170.636719 173.605469 170.378906 173.34375 C 170.121094 173.085938 169.820312 172.886719 169.484375 172.746094 C 169.144531 172.605469 168.792969 172.535156 168.425781 172.535156 Z M 168.425781 172.535156 " fill-opacity="1" fill-rule="nonzero"/><path fill="#3949ab" d="M 207.128906 172.535156 C 206.761719 172.535156 206.410156 172.605469 206.070312 172.746094 C 205.730469 172.886719 205.433594 173.085938 205.171875 173.34375 C 204.914062 173.605469 204.714844 173.902344 204.574219 174.242188 C 204.433594 174.582031 204.363281 174.933594 204.363281 175.300781 L 204.363281 180.828125 C 204.363281 181.195312 204.433594 181.546875 204.574219 181.886719 C 204.714844 182.226562 204.914062 182.523438 205.171875 182.785156 C 205.433594 183.042969 205.730469 183.242188 206.070312 183.382812 C 206.410156 183.523438 206.761719 183.59375 207.128906 183.59375 C 207.496094 183.59375 207.847656 183.523438 208.1875 183.382812 C 208.523438 183.242188 208.824219 183.042969 209.082031 182.785156 C 209.34375 182.523438 209.542969 182.226562 209.683594 181.886719 C 209.824219 181.546875 209.894531 181.195312 209.894531 180.828125 L 209.894531 175.300781 C 209.894531 174.933594 209.824219 174.582031 209.683594 174.242188 C 209.542969 173.902344 209.34375 173.605469 209.082031 173.34375 C 208.824219 173.085938 208.523438 172.886719 208.1875 172.746094 C 207.847656 172.605469 207.496094 172.535156 207.128906 172.535156 Z M 207.128906 172.535156 " fill-opacity="1" fill-rule="nonzero"/><g fill="#3949ab" fill-opacity="1"><g transform="translate(83.07591, 279.928107)"><g><path d="M 13.09375 -5.21875 C 13.09375 -4.15625 12.820312 -3.207031 12.28125 -2.375 C 11.738281 -1.550781 10.957031 -0.910156 9.9375 -0.453125 C 8.925781 0.00390625 7.734375 0.234375 6.359375 0.234375 C 5.210938 0.234375 4.25 0.15625 3.46875 0 C 2.695312 -0.164062 1.894531 -0.445312 1.0625 -0.84375 L 1.0625 -4.984375 C 1.945312 -4.523438 2.863281 -4.164062 3.8125 -3.90625 C 4.769531 -3.65625 5.648438 -3.53125 6.453125 -3.53125 C 7.140625 -3.53125 7.644531 -3.648438 7.96875 -3.890625 C 8.289062 -4.128906 8.453125 -4.441406 8.453125 -4.828125 C 8.453125 -5.054688 8.382812 -5.257812 8.25 -5.4375 C 8.125 -5.613281 7.914062 -5.789062 7.625 -5.96875 C 7.34375 -6.15625 6.582031 -6.523438 5.34375 -7.078125 C 4.226562 -7.585938 3.390625 -8.082031 2.828125 -8.5625 C 2.265625 -9.039062 1.847656 -9.585938 1.578125 -10.203125 C 1.304688 -10.828125 1.171875 -11.5625 1.171875 -12.40625 C 1.171875 -13.988281 1.742188 -15.222656 2.890625 -16.109375 C 4.046875 -16.992188 5.632812 -17.4375 7.65625 -17.4375 C 9.4375 -17.4375 11.25 -17.023438 13.09375 -16.203125 L 11.671875 -12.609375 C 10.066406 -13.347656 8.679688 -13.71875 7.515625 -13.71875 C 6.910156 -13.71875 6.46875 -13.609375 6.1875 -13.390625 C 5.914062 -13.179688 5.78125 -12.921875 5.78125 -12.609375 C 5.78125 -12.273438 5.953125 -11.972656 6.296875 -11.703125 C 6.648438 -11.441406 7.597656 -10.957031 9.140625 -10.25 C 10.628906 -9.582031 11.660156 -8.863281 12.234375 -8.09375 C 12.804688 -7.332031 13.09375 -6.375 13.09375 -5.21875 Z M 13.09375 -5.21875 "/></g></g></g><g fill="#3949ab" fill-opacity="1"><g transform="translate(104.192375, 279.928107)"><g><path d="M 16.46875 -17.1875 L 16.46875 -6.84375 C 16.46875 -4.59375 15.832031 -2.847656 14.5625 -1.609375 C 13.289062 -0.378906 11.453125 0.234375 9.046875 0.234375 C 6.703125 0.234375 4.898438 -0.363281 3.640625 -1.5625 C 2.390625 -2.757812 1.765625 -4.484375 1.765625 -6.734375 L 1.765625 -17.1875 L 6.4375 -17.1875 L 6.4375 -7.09375 C 6.4375 -5.882812 6.660156 -5.003906 7.109375 -4.453125 C 7.566406 -3.910156 8.238281 -3.640625 9.125 -3.640625 C 10.070312 -3.640625 10.757812 -3.910156 11.1875 -4.453125 C 11.613281 -4.992188 11.828125 -5.882812 11.828125 -7.125 L 11.828125 -17.1875 Z M 16.46875 -17.1875 "/></g></g></g><g fill="#3949ab" fill-opacity="1"><g transform="translate(129.633974, 279.928107)"><g><path d="M 14.328125 -11.71875 C 14.328125 -9.800781 13.757812 -8.316406 12.625 -7.265625 C 11.5 -6.222656 9.894531 -5.703125 7.8125 -5.703125 L 6.5 -5.703125 L 6.5 0 L 1.859375 0 L 1.859375 -17.1875 L 7.8125 -17.1875 C 9.976562 -17.1875 11.601562 -16.710938 12.6875 -15.765625 C 13.78125 -14.816406 14.328125 -13.46875 14.328125 -11.71875 Z M 6.5 -9.484375 L 7.34375 -9.484375 C 8.039062 -9.484375 8.59375 -9.675781 9 -10.0625 C 9.414062 -10.457031 9.625 -11.003906 9.625 -11.703125 C 9.625 -12.859375 8.984375 -13.4375 7.703125 -13.4375 L 6.5 -13.4375 Z M 6.5 -9.484375 "/></g></g></g><g fill="#3949ab" fill-opacity="1"><g transform="translate(152.066785, 279.928107)"><g><path d="M 12.40625 0 L 11.5625 -3.21875 L 5.96875 -3.21875 L 5.109375 0 L 0 0 L 5.609375 -17.265625 L 11.796875 -17.265625 L 17.484375 0 Z M 10.59375 -7.03125 L 9.859375 -9.859375 C 9.679688 -10.484375 9.46875 -11.289062 9.21875 -12.28125 C 8.976562 -13.28125 8.816406 -13.992188 8.734375 -14.421875 C 8.660156 -14.023438 8.519531 -13.367188 8.3125 -12.453125 C 8.101562 -11.535156 7.644531 -9.726562 6.9375 -7.03125 Z M 10.59375 -7.03125 "/></g></g></g><g fill="#3949ab" fill-opacity="1"><g transform="translate(176.767939, 279.928107)"><g><path d="M 1.859375 0 L 1.859375 -17.1875 L 6.5 -17.1875 L 6.5 -3.75 L 13.125 -3.75 L 13.125 0 Z M 1.859375 0 "/></g></g></g><g fill="#3949ab" fill-opacity="1"><g transform="translate(198.001935, 279.928107)"><g><path d="M 1.859375 0 L 1.859375 -17.1875 L 6.5 -17.1875 L 6.5 -3.75 L 13.125 -3.75 L 13.125 0 Z M 1.859375 0 "/></g></g></g><g fill="#3949ab" fill-opacity="1"><g transform="translate(219.235931, 279.928107)"><g><path d="M 12.40625 0 L 11.5625 -3.21875 L 5.96875 -3.21875 L 5.109375 0 L 0 0 L 5.609375 -17.265625 L 11.796875 -17.265625 L 17.484375 0 Z M 10.59375 -7.03125 L 9.859375 -9.859375 C 9.679688 -10.484375 9.46875 -11.289062 9.21875 -12.28125 C 8.976562 -13.28125 8.816406 -13.992188 8.734375 -14.421875 C 8.660156 -14.023438 8.519531 -13.367188 8.3125 -12.453125 C 8.101562 -11.535156 7.644531 -9.726562 6.9375 -7.03125 Z M 10.59375 -7.03125 "/></g></g></g><g fill="#3949ab" fill-opacity="1"><g transform="translate(243.937085, 279.928107)"><g><path d="M 9.34375 0 L 5.828125 -12.375 L 5.71875 -12.375 C 5.882812 -10.269531 5.96875 -8.632812 5.96875 -7.46875 L 5.96875 0 L 1.859375 0 L 1.859375 -17.1875 L 8.046875 -17.1875 L 11.625 -4.984375 L 11.71875 -4.984375 L 15.234375 -17.1875 L 21.4375 -17.1875 L 21.4375 0 L 17.171875 0 L 17.171875 -7.53125 C 17.171875 -7.925781 17.175781 -8.363281 17.1875 -8.84375 C 17.195312 -9.320312 17.25 -10.492188 17.34375 -12.359375 L 17.234375 -12.359375 L 13.765625 0 Z M 9.34375 0 "/></g></g></g><g fill="#3949ab" fill-opacity="1"><g transform="translate(274.432509, 279.928107)"><g><path d="M 12.40625 0 L 11.5625 -3.21875 L 5.96875 -3.21875 L 5.109375 0 L 0 0 L 5.609375 -17.265625 L 11.796875 -17.265625 L 17.484375 0 Z M 10.59375 -7.03125 L 9.859375 -9.859375 C 9.679688 -10.484375 9.46875 -11.289062 9.21875 -12.28125 C 8.976562 -13.28125 8.816406 -13.992188 8.734375 -14.421875 C 8.660156 -14.023438 8.519531 -13.367188 8.3125 -12.453125 C 8.101562 -11.535156 7.644531 -9.726562 6.9375 -7.03125 Z M 10.59375 -7.03125 "/></g></g></g></svg>